<mxfile host="Electron" modified="2023-09-18T02:41:35.250Z" agent="Mozilla/5.0 (Windows NT 10.0; Win64; x64) AppleWebKit/537.36 (KHTML, like Gecko) draw.io/21.5.1 Chrome/112.0.5615.204 Electron/24.6.0 Safari/537.36" etag="2ZdFQROyi-DpgiwnZRaX" version="21.5.1" type="device">
  <diagram name="Page-1" id="qcsQ7dmBim9LaJYJrWlc">
    <mxGraphModel dx="1605" dy="831" grid="1" gridSize="10" guides="1" tooltips="1" connect="1" arrows="1" fold="1" page="1" pageScale="1" pageWidth="827" pageHeight="1169" math="0" shadow="0">
      <root>
        <mxCell id="0" />
        <mxCell id="1" parent="0" />
        <mxCell id="qUsaCh7KRmECMPVAaG_z-4" value="Logs" style="edgeStyle=orthogonalEdgeStyle;rounded=0;orthogonalLoop=1;jettySize=auto;html=1;entryX=0;entryY=0.5;entryDx=0;entryDy=0;entryPerimeter=0;" edge="1" parent="1" source="qUsaCh7KRmECMPVAaG_z-1" target="qUsaCh7KRmECMPVAaG_z-3">
          <mxGeometry relative="1" as="geometry" />
        </mxCell>
        <mxCell id="qUsaCh7KRmECMPVAaG_z-1" value="CloudWatch Logs" style="sketch=0;outlineConnect=0;fontColor=#232F3E;gradientColor=none;fillColor=#B0084D;strokeColor=none;dashed=0;verticalLabelPosition=bottom;verticalAlign=top;align=center;html=1;fontSize=12;fontStyle=0;aspect=fixed;pointerEvents=1;shape=mxgraph.aws4.logs;labelPosition=center;" vertex="1" parent="1">
          <mxGeometry x="-260" y="460" width="78" height="58" as="geometry" />
        </mxCell>
        <mxCell id="qUsaCh7KRmECMPVAaG_z-14" value="real-time" style="edgeStyle=orthogonalEdgeStyle;rounded=0;orthogonalLoop=1;jettySize=auto;html=1;" edge="1" parent="1" source="qUsaCh7KRmECMPVAaG_z-2" target="qUsaCh7KRmECMPVAaG_z-8">
          <mxGeometry relative="1" as="geometry" />
        </mxCell>
        <mxCell id="qUsaCh7KRmECMPVAaG_z-2" value="AWS Lambda" style="sketch=0;points=[[0,0,0],[0.25,0,0],[0.5,0,0],[0.75,0,0],[1,0,0],[0,1,0],[0.25,1,0],[0.5,1,0],[0.75,1,0],[1,1,0],[0,0.25,0],[0,0.5,0],[0,0.75,0],[1,0.25,0],[1,0.5,0],[1,0.75,0]];outlineConnect=0;fontColor=#232F3E;gradientColor=#F78E04;gradientDirection=north;fillColor=#D05C17;strokeColor=#ffffff;dashed=0;verticalLabelPosition=top;verticalAlign=bottom;align=center;html=1;fontSize=12;fontStyle=0;aspect=fixed;shape=mxgraph.aws4.resourceIcon;resIcon=mxgraph.aws4.lambda;labelPosition=center;" vertex="1" parent="1">
          <mxGeometry x="180" y="320" width="78" height="78" as="geometry" />
        </mxCell>
        <mxCell id="qUsaCh7KRmECMPVAaG_z-17" style="edgeStyle=orthogonalEdgeStyle;rounded=0;orthogonalLoop=1;jettySize=auto;html=1;entryX=0;entryY=0.5;entryDx=0;entryDy=0;entryPerimeter=0;" edge="1" parent="1" source="qUsaCh7KRmECMPVAaG_z-3" target="qUsaCh7KRmECMPVAaG_z-2">
          <mxGeometry relative="1" as="geometry" />
        </mxCell>
        <mxCell id="qUsaCh7KRmECMPVAaG_z-18" style="edgeStyle=orthogonalEdgeStyle;rounded=0;orthogonalLoop=1;jettySize=auto;html=1;entryX=0;entryY=0.5;entryDx=0;entryDy=0;entryPerimeter=0;" edge="1" parent="1" source="qUsaCh7KRmECMPVAaG_z-3" target="qUsaCh7KRmECMPVAaG_z-5">
          <mxGeometry relative="1" as="geometry" />
        </mxCell>
        <mxCell id="qUsaCh7KRmECMPVAaG_z-19" style="edgeStyle=orthogonalEdgeStyle;rounded=0;orthogonalLoop=1;jettySize=auto;html=1;entryX=0;entryY=0.5;entryDx=0;entryDy=0;entryPerimeter=0;" edge="1" parent="1" source="qUsaCh7KRmECMPVAaG_z-3" target="qUsaCh7KRmECMPVAaG_z-7">
          <mxGeometry relative="1" as="geometry" />
        </mxCell>
        <mxCell id="qUsaCh7KRmECMPVAaG_z-3" value="Subscription Filter" style="sketch=0;points=[[0,0,0],[0.25,0,0],[0.5,0,0],[0.75,0,0],[1,0,0],[0,1,0],[0.25,1,0],[0.5,1,0],[0.75,1,0],[1,1,0],[0,0.25,0],[0,0.5,0],[0,0.75,0],[1,0.25,0],[1,0.5,0],[1,0.75,0]];points=[[0,0,0],[0.25,0,0],[0.5,0,0],[0.75,0,0],[1,0,0],[0,1,0],[0.25,1,0],[0.5,1,0],[0.75,1,0],[1,1,0],[0,0.25,0],[0,0.5,0],[0,0.75,0],[1,0.25,0],[1,0.5,0],[1,0.75,0]];outlineConnect=0;fontColor=#232F3E;gradientColor=#F34482;gradientDirection=north;fillColor=#BC1356;strokeColor=#ffffff;dashed=0;verticalLabelPosition=bottom;verticalAlign=top;align=center;html=1;fontSize=12;fontStyle=0;aspect=fixed;shape=mxgraph.aws4.resourceIcon;resIcon=mxgraph.aws4.cloudwatch_2;" vertex="1" parent="1">
          <mxGeometry x="-30" y="450" width="78" height="78" as="geometry" />
        </mxCell>
        <mxCell id="qUsaCh7KRmECMPVAaG_z-15" style="edgeStyle=orthogonalEdgeStyle;rounded=0;orthogonalLoop=1;jettySize=auto;html=1;" edge="1" parent="1" source="qUsaCh7KRmECMPVAaG_z-5" target="qUsaCh7KRmECMPVAaG_z-9">
          <mxGeometry relative="1" as="geometry" />
        </mxCell>
        <mxCell id="qUsaCh7KRmECMPVAaG_z-26" value="Near real-time" style="edgeLabel;html=1;align=center;verticalAlign=middle;resizable=0;points=[];" vertex="1" connectable="0" parent="qUsaCh7KRmECMPVAaG_z-15">
          <mxGeometry x="0.0427" y="2" relative="1" as="geometry">
            <mxPoint as="offset" />
          </mxGeometry>
        </mxCell>
        <mxCell id="qUsaCh7KRmECMPVAaG_z-16" style="rounded=0;orthogonalLoop=1;jettySize=auto;html=1;entryX=0;entryY=0.5;entryDx=0;entryDy=0;entryPerimeter=0;" edge="1" parent="1" source="qUsaCh7KRmECMPVAaG_z-5" target="qUsaCh7KRmECMPVAaG_z-8">
          <mxGeometry relative="1" as="geometry" />
        </mxCell>
        <mxCell id="qUsaCh7KRmECMPVAaG_z-5" value="Kinesis Data Firehose" style="sketch=0;points=[[0,0,0],[0.25,0,0],[0.5,0,0],[0.75,0,0],[1,0,0],[0,1,0],[0.25,1,0],[0.5,1,0],[0.75,1,0],[1,1,0],[0,0.25,0],[0,0.5,0],[0,0.75,0],[1,0.25,0],[1,0.5,0],[1,0.75,0]];outlineConnect=0;fontColor=#232F3E;gradientColor=#945DF2;gradientDirection=north;fillColor=#5A30B5;strokeColor=#ffffff;dashed=0;verticalLabelPosition=top;verticalAlign=bottom;align=center;html=1;fontSize=12;fontStyle=0;aspect=fixed;shape=mxgraph.aws4.resourceIcon;resIcon=mxgraph.aws4.kinesis_data_firehose;labelPosition=center;" vertex="1" parent="1">
          <mxGeometry x="180" y="450" width="78" height="78" as="geometry" />
        </mxCell>
        <mxCell id="qUsaCh7KRmECMPVAaG_z-20" style="edgeStyle=orthogonalEdgeStyle;rounded=0;orthogonalLoop=1;jettySize=auto;html=1;entryX=0.5;entryY=0;entryDx=0;entryDy=0;entryPerimeter=0;" edge="1" parent="1" source="qUsaCh7KRmECMPVAaG_z-7" target="qUsaCh7KRmECMPVAaG_z-11">
          <mxGeometry relative="1" as="geometry">
            <Array as="points">
              <mxPoint x="219" y="680" />
              <mxPoint x="188" y="680" />
            </Array>
          </mxGeometry>
        </mxCell>
        <mxCell id="qUsaCh7KRmECMPVAaG_z-21" style="edgeStyle=orthogonalEdgeStyle;rounded=0;orthogonalLoop=1;jettySize=auto;html=1;" edge="1" parent="1" source="qUsaCh7KRmECMPVAaG_z-7" target="qUsaCh7KRmECMPVAaG_z-13">
          <mxGeometry relative="1" as="geometry">
            <Array as="points">
              <mxPoint x="219" y="680" />
              <mxPoint x="248" y="680" />
            </Array>
          </mxGeometry>
        </mxCell>
        <mxCell id="qUsaCh7KRmECMPVAaG_z-22" style="edgeStyle=orthogonalEdgeStyle;rounded=0;orthogonalLoop=1;jettySize=auto;html=1;" edge="1" parent="1" source="qUsaCh7KRmECMPVAaG_z-7" target="qUsaCh7KRmECMPVAaG_z-12">
          <mxGeometry relative="1" as="geometry">
            <Array as="points">
              <mxPoint x="219" y="680" />
              <mxPoint x="308" y="680" />
            </Array>
          </mxGeometry>
        </mxCell>
        <mxCell id="qUsaCh7KRmECMPVAaG_z-23" style="edgeStyle=orthogonalEdgeStyle;rounded=0;orthogonalLoop=1;jettySize=auto;html=1;" edge="1" parent="1" source="qUsaCh7KRmECMPVAaG_z-7" target="qUsaCh7KRmECMPVAaG_z-10">
          <mxGeometry relative="1" as="geometry">
            <Array as="points">
              <mxPoint x="219" y="680" />
              <mxPoint x="131" y="680" />
            </Array>
          </mxGeometry>
        </mxCell>
        <mxCell id="qUsaCh7KRmECMPVAaG_z-7" value="Kinesis Data Streams" style="sketch=0;points=[[0,0,0],[0.25,0,0],[0.5,0,0],[0.75,0,0],[1,0,0],[0,1,0],[0.25,1,0],[0.5,1,0],[0.75,1,0],[1,1,0],[0,0.25,0],[0,0.5,0],[0,0.75,0],[1,0.25,0],[1,0.5,0],[1,0.75,0]];outlineConnect=0;fontColor=#232F3E;gradientColor=#945DF2;gradientDirection=north;fillColor=#5A30B5;strokeColor=#ffffff;dashed=0;verticalLabelPosition=top;verticalAlign=bottom;align=center;html=1;fontSize=12;fontStyle=0;aspect=fixed;shape=mxgraph.aws4.resourceIcon;resIcon=mxgraph.aws4.kinesis_data_streams;labelPosition=center;" vertex="1" parent="1">
          <mxGeometry x="180" y="580" width="78" height="78" as="geometry" />
        </mxCell>
        <mxCell id="qUsaCh7KRmECMPVAaG_z-8" value="Amazon OpenSearch" style="sketch=0;points=[[0,0,0],[0.25,0,0],[0.5,0,0],[0.75,0,0],[1,0,0],[0,1,0],[0.25,1,0],[0.5,1,0],[0.75,1,0],[1,1,0],[0,0.25,0],[0,0.5,0],[0,0.75,0],[1,0.25,0],[1,0.5,0],[1,0.75,0]];outlineConnect=0;fontColor=#232F3E;gradientColor=#945DF2;gradientDirection=north;fillColor=#5A30B5;strokeColor=#ffffff;dashed=0;verticalLabelPosition=bottom;verticalAlign=top;align=center;html=1;fontSize=12;fontStyle=0;aspect=fixed;shape=mxgraph.aws4.resourceIcon;resIcon=mxgraph.aws4.elasticsearch_service;" vertex="1" parent="1">
          <mxGeometry x="375" y="320" width="78" height="78" as="geometry" />
        </mxCell>
        <mxCell id="qUsaCh7KRmECMPVAaG_z-9" value="S3" style="sketch=0;points=[[0,0,0],[0.25,0,0],[0.5,0,0],[0.75,0,0],[1,0,0],[0,1,0],[0.25,1,0],[0.5,1,0],[0.75,1,0],[1,1,0],[0,0.25,0],[0,0.5,0],[0,0.75,0],[1,0.25,0],[1,0.5,0],[1,0.75,0]];outlineConnect=0;fontColor=#232F3E;gradientColor=#60A337;gradientDirection=north;fillColor=#277116;strokeColor=#ffffff;dashed=0;verticalLabelPosition=bottom;verticalAlign=top;align=center;html=1;fontSize=12;fontStyle=0;aspect=fixed;shape=mxgraph.aws4.resourceIcon;resIcon=mxgraph.aws4.s3;" vertex="1" parent="1">
          <mxGeometry x="375" y="450" width="78" height="78" as="geometry" />
        </mxCell>
        <mxCell id="qUsaCh7KRmECMPVAaG_z-10" value="KDF" style="sketch=0;points=[[0,0,0],[0.25,0,0],[0.5,0,0],[0.75,0,0],[1,0,0],[0,1,0],[0.25,1,0],[0.5,1,0],[0.75,1,0],[1,1,0],[0,0.25,0],[0,0.5,0],[0,0.75,0],[1,0.25,0],[1,0.5,0],[1,0.75,0]];outlineConnect=0;fontColor=#232F3E;gradientColor=#945DF2;gradientDirection=north;fillColor=#5A30B5;strokeColor=#ffffff;dashed=0;verticalLabelPosition=bottom;verticalAlign=top;align=center;html=1;fontSize=12;fontStyle=0;aspect=fixed;shape=mxgraph.aws4.resourceIcon;resIcon=mxgraph.aws4.kinesis_data_firehose;" vertex="1" parent="1">
          <mxGeometry x="110.5" y="710" width="40" height="40" as="geometry" />
        </mxCell>
        <mxCell id="qUsaCh7KRmECMPVAaG_z-11" value="KDA" style="sketch=0;points=[[0,0,0],[0.25,0,0],[0.5,0,0],[0.75,0,0],[1,0,0],[0,1,0],[0.25,1,0],[0.5,1,0],[0.75,1,0],[1,1,0],[0,0.25,0],[0,0.5,0],[0,0.75,0],[1,0.25,0],[1,0.5,0],[1,0.75,0]];outlineConnect=0;fontColor=#232F3E;gradientColor=#945DF2;gradientDirection=north;fillColor=#5A30B5;strokeColor=#ffffff;dashed=0;verticalLabelPosition=bottom;verticalAlign=top;align=center;html=1;fontSize=12;fontStyle=0;aspect=fixed;shape=mxgraph.aws4.resourceIcon;resIcon=mxgraph.aws4.kinesis_data_analytics;" vertex="1" parent="1">
          <mxGeometry x="167.5" y="710" width="40" height="40" as="geometry" />
        </mxCell>
        <mxCell id="qUsaCh7KRmECMPVAaG_z-12" value="EC2" style="sketch=0;points=[[0,0,0],[0.25,0,0],[0.5,0,0],[0.75,0,0],[1,0,0],[0,1,0],[0.25,1,0],[0.5,1,0],[0.75,1,0],[1,1,0],[0,0.25,0],[0,0.5,0],[0,0.75,0],[1,0.25,0],[1,0.5,0],[1,0.75,0]];outlineConnect=0;fontColor=#232F3E;gradientColor=#F78E04;gradientDirection=north;fillColor=#D05C17;strokeColor=#ffffff;dashed=0;verticalLabelPosition=bottom;verticalAlign=top;align=center;html=1;fontSize=12;fontStyle=0;aspect=fixed;shape=mxgraph.aws4.resourceIcon;resIcon=mxgraph.aws4.ec2;" vertex="1" parent="1">
          <mxGeometry x="287.5" y="710" width="40" height="40" as="geometry" />
        </mxCell>
        <mxCell id="qUsaCh7KRmECMPVAaG_z-13" value="Lambda" style="sketch=0;points=[[0,0,0],[0.25,0,0],[0.5,0,0],[0.75,0,0],[1,0,0],[0,1,0],[0.25,1,0],[0.5,1,0],[0.75,1,0],[1,1,0],[0,0.25,0],[0,0.5,0],[0,0.75,0],[1,0.25,0],[1,0.5,0],[1,0.75,0]];outlineConnect=0;fontColor=#232F3E;gradientColor=#F78E04;gradientDirection=north;fillColor=#D05C17;strokeColor=#ffffff;dashed=0;verticalLabelPosition=bottom;verticalAlign=top;align=center;html=1;fontSize=12;fontStyle=0;aspect=fixed;shape=mxgraph.aws4.resourceIcon;resIcon=mxgraph.aws4.lambda;" vertex="1" parent="1">
          <mxGeometry x="227.5" y="710" width="40" height="40" as="geometry" />
        </mxCell>
        <mxCell id="qUsaCh7KRmECMPVAaG_z-24" value="&lt;b&gt;&lt;font style=&quot;font-size: 20px;&quot;&gt;(...)&lt;/font&gt;&lt;/b&gt;" style="text;html=1;align=center;verticalAlign=middle;resizable=0;points=[];autosize=1;strokeColor=none;fillColor=none;" vertex="1" parent="1">
          <mxGeometry x="330" y="710" width="50" height="40" as="geometry" />
        </mxCell>
      </root>
    </mxGraphModel>
  </diagram>
</mxfile>
